<svg width="28" height="23" viewBox="0 0 28 23" fill="none" xmlns="http://www.w3.org/2000/svg">
<g clip-path="url(#clip0_10_88)">
<path d="M0 2.63443V7.67898C0 9.21539 1.8721 10.0348 3.01617 8.95932L8.47647 3.91477C9.67253 2.81368 8.89249 0.867554 7.2544 0.867554H1.7941C0.806044 0.867554 0 1.66137 0 2.63443Z" fill="white"/>
<path d="M25.8454 0.867554H20.3851C18.773 0.867554 17.967 2.81368 19.163 3.91477L24.6233 8.95932C25.7674 10.0092 27.6395 9.21539 27.6395 7.67898V2.63443C27.6395 1.66137 26.8335 0.867554 25.8454 0.867554Z" fill="white"/>
<path d="M15.0548 13.1845L24.6233 22.0444C25.7674 23.0943 27.6395 22.3005 27.6395 20.7641V15.6683C27.6395 15.1818 27.4315 14.7209 27.0675 14.388L15.0548 3.24899C14.3528 2.60882 13.2867 2.60882 12.5847 3.24899L0.572028 14.388C0.208008 14.7209 -3.09944e-06 15.1818 -3.09944e-06 15.6683V20.7641C-3.09944e-06 22.3005 1.8721 23.1199 3.01616 22.0444L12.5847 13.1845C13.2867 12.5443 14.3528 12.5443 15.0548 13.1845Z" fill="white"/>
</g>
<defs>
<clipPath id="clip0_10_88">
<rect width="27.6395" height="21.6634" fill="white" transform="translate(0 0.867554)"/>
</clipPath>
</defs>
</svg>
